<?xml version="1.0" encoding="utf-8"?>
<!-- Generator: Adobe Illustrator 27.0.0, SVG Export Plug-In . SVG Version: 6.00 Build 0)  -->
<svg version="1.1" id="Layer_1" xmlns="http://www.w3.org/2000/svg" xmlns:xlink="http://www.w3.org/1999/xlink" x="0px" y="0px"
	 viewBox="0 0 200 61.1" style="enable-background:new 0 0 200 61.1;" xml:space="preserve">
<g>
	<g>
		<g>
			<path d="M11.27,6.73H0V1.02h29.08v5.71H17.81v31.06h-6.54V6.73z"/>
			<path d="M31.11,19.3c0-2.94,0.49-5.6,1.48-7.97c0.99-2.37,2.35-4.39,4.1-6.05c1.75-1.66,3.83-2.94,6.23-3.84
				c2.41-0.9,5.03-1.35,7.87-1.35c2.87,0,5.52,0.45,7.95,1.35c2.42,0.9,4.52,2.18,6.28,3.84c1.77,1.66,3.14,3.68,4.13,6.05
				c0.99,2.37,1.48,5.03,1.48,7.97c0,2.87-0.49,5.5-1.48,7.87c-0.99,2.37-2.36,4.41-4.13,6.13c-1.77,1.71-3.86,3.05-6.28,4
				c-2.42,0.95-5.07,1.43-7.95,1.43c-2.84,0-5.46-0.48-7.87-1.43c-2.41-0.95-4.48-2.29-6.23-4c-1.75-1.71-3.12-3.76-4.1-6.13
				C31.6,24.8,31.11,22.17,31.11,19.3z M38.22,19.3c0,1.97,0.3,3.78,0.91,5.43c0.61,1.64,1.47,3.07,2.6,4.28
				c1.12,1.21,2.46,2.15,4,2.83c1.54,0.68,3.25,1.01,5.12,1.01c1.87,0,3.58-0.34,5.14-1.01c1.56-0.68,2.9-1.62,4.02-2.83
				c1.12-1.21,1.99-2.64,2.6-4.28c0.61-1.64,0.91-3.45,0.91-5.43c0-1.9-0.3-3.67-0.91-5.3c-0.61-1.63-1.46-3.05-2.57-4.26
				c-1.11-1.21-2.44-2.16-4-2.86c-1.56-0.69-3.29-1.04-5.19-1.04c-1.9,0-3.63,0.35-5.17,1.04c-1.54,0.69-2.87,1.64-3.97,2.86
				c-1.11,1.21-1.97,2.63-2.57,4.26C38.53,15.63,38.22,17.4,38.22,19.3z"/>
			<path d="M77.42,1.02h12c2.11,0,4.02,0.19,5.71,0.57c1.7,0.38,3.15,1,4.36,1.87c1.21,0.87,2.15,1.97,2.8,3.32
				c0.66,1.35,0.99,2.98,0.99,4.88c0,2.04-0.38,3.76-1.14,5.14c-0.76,1.39-1.79,2.5-3.09,3.35c-1.3,0.85-2.81,1.46-4.54,1.84
				c-1.73,0.38-3.57,0.57-5.5,0.57h-5.04v15.22h-6.54V1.02z M88.54,17.07c1.07,0,2.09-0.08,3.06-0.23c0.97-0.16,1.83-0.43,2.6-0.83
				c0.76-0.4,1.37-0.94,1.82-1.64c0.45-0.69,0.68-1.59,0.68-2.7c0-1.07-0.23-1.95-0.68-2.62c-0.45-0.68-1.05-1.2-1.79-1.58
				c-0.75-0.38-1.59-0.63-2.54-0.75c-0.95-0.12-1.93-0.18-2.93-0.18h-4.78v10.54H88.54z"/>
			<path d="M108.75,1.02h12c2.11,0,4.02,0.19,5.71,0.57c1.7,0.38,3.15,1,4.36,1.87c1.21,0.87,2.15,1.97,2.8,3.32
				c0.66,1.35,0.99,2.98,0.99,4.88c0,2.04-0.38,3.76-1.14,5.14c-0.76,1.39-1.79,2.5-3.09,3.35c-1.3,0.85-2.81,1.46-4.54,1.84
				c-1.73,0.38-3.57,0.57-5.5,0.57h-5.04v15.22h-6.54V1.02z M119.86,17.07c1.07,0,2.09-0.08,3.06-0.23c0.97-0.16,1.83-0.43,2.6-0.83
				c0.76-0.4,1.37-0.94,1.82-1.64c0.45-0.69,0.68-1.59,0.68-2.7c0-1.07-0.23-1.95-0.68-2.62c-0.45-0.68-1.05-1.2-1.79-1.58
				c-0.74-0.38-1.59-0.63-2.54-0.75c-0.95-0.12-1.93-0.18-2.93-0.18h-4.78v10.54H119.86z"/>
			<path d="M140.07,1.02h24.36v5.71h-17.81v9.35h16.88v5.5h-16.88v10.39h18.75v5.82h-25.29V1.02z"/>
			<path d="M172.27,1.02h12.78c1.73,0,3.41,0.18,5.04,0.55c1.63,0.36,3.07,0.96,4.34,1.79c1.26,0.83,2.28,1.92,3.04,3.27
				c0.76,1.35,1.14,3,1.14,4.93c0,2.67-0.75,4.84-2.26,6.52c-1.51,1.68-3.56,2.81-6.15,3.4L200,37.79h-7.89l-8.52-15.58h-4.78v15.58
				h-6.54V1.02z M184.16,16.86c0.93,0,1.87-0.07,2.8-0.21c0.93-0.14,1.77-0.4,2.52-0.78c0.74-0.38,1.36-0.93,1.84-1.64
				c0.48-0.71,0.73-1.62,0.73-2.73c0-1-0.23-1.83-0.67-2.47c-0.45-0.64-1.02-1.15-1.71-1.53c-0.69-0.38-1.48-0.64-2.36-0.78
				c-0.88-0.14-1.74-0.21-2.57-0.21h-5.92v10.33H184.16z"/>
		</g>
	</g>
	<g>
		<g>
			<path d="M76.61,60.62V50.06l-2.68,2.07l-1.77-2.42l4.73-3.48h3.11v14.39H76.61z"/>
			<path d="M97.42,50.99c0,0.85-0.15,1.63-0.45,2.33c-0.3,0.7-0.68,1.41-1.16,2.12l-3.47,5.18h-4.12l3.58-4.96l0.04-0.06
				c-0.15,0.05-0.31,0.09-0.5,0.12c-0.18,0.03-0.36,0.04-0.52,0.04c-0.64,0-1.24-0.11-1.81-0.34c-0.57-0.22-1.07-0.54-1.5-0.95
				c-0.43-0.41-0.78-0.91-1.03-1.48c-0.26-0.58-0.39-1.22-0.39-1.92c0-0.81,0.15-1.54,0.45-2.19c0.3-0.65,0.7-1.2,1.22-1.65
				c0.51-0.45,1.12-0.79,1.81-1.03c0.69-0.24,1.42-0.36,2.19-0.36c0.78,0,1.52,0.12,2.21,0.36s1.29,0.58,1.8,1.03
				c0.51,0.45,0.91,0.99,1.21,1.63C97.27,49.49,97.42,50.2,97.42,50.99z M94.03,50.95c0-0.62-0.2-1.16-0.6-1.62
				c-0.4-0.45-0.95-0.68-1.64-0.68c-0.69,0-1.25,0.21-1.66,0.64c-0.42,0.43-0.62,0.99-0.62,1.68c0,0.65,0.2,1.19,0.61,1.62
				c0.41,0.43,0.95,0.64,1.63,0.64c0.68,0,1.23-0.21,1.65-0.63C93.82,52.18,94.03,51.63,94.03,50.95z"/>
			<path d="M112.05,57.82v2.8h-3.19v-2.8h-6.77v-2.87l5.85-8.72h4.08v8.82h1.99v2.76H112.05z M108.88,49.73h-0.06l-3.41,5.32h3.48
				V49.73z"/>
			<path d="M130.16,53.39c0,1.02-0.1,1.99-0.3,2.91c-0.2,0.92-0.53,1.73-0.98,2.43c-0.45,0.7-1.03,1.25-1.74,1.67
				c-0.71,0.41-1.57,0.62-2.59,0.62c-1.02,0-1.88-0.21-2.6-0.62c-0.72-0.41-1.3-0.97-1.76-1.67c-0.45-0.7-0.78-1.51-0.99-2.43
				c-0.2-0.92-0.3-1.89-0.3-2.91c0-1.02,0.1-1.98,0.3-2.9c0.2-0.92,0.53-1.71,0.99-2.4c0.45-0.68,1.04-1.23,1.76-1.64
				c0.72-0.41,1.59-0.61,2.6-0.61c1.02,0,1.88,0.2,2.59,0.61c0.71,0.41,1.29,0.95,1.74,1.64c0.45,0.68,0.77,1.48,0.98,2.4
				C130.06,51.41,130.16,52.37,130.16,53.39z M126.67,53.39c0-0.45-0.03-0.94-0.08-1.48c-0.05-0.54-0.16-1.05-0.3-1.51
				c-0.15-0.47-0.36-0.86-0.64-1.18s-0.64-0.48-1.09-0.48c-0.45,0-0.81,0.16-1.1,0.48s-0.5,0.71-0.66,1.18
				c-0.16,0.47-0.26,0.97-0.31,1.51c-0.05,0.54-0.08,1.04-0.08,1.48c0,0.46,0.03,0.97,0.08,1.51c0.05,0.55,0.16,1.06,0.31,1.52
				c0.16,0.47,0.38,0.86,0.66,1.18c0.28,0.32,0.65,0.48,1.1,0.48c0.45,0,0.81-0.16,1.09-0.48c0.28-0.32,0.49-0.71,0.64-1.18
				c0.15-0.47,0.25-0.98,0.3-1.52C126.64,54.35,126.67,53.85,126.67,53.39z"/>
		</g>
	</g>
	<rect x="34.25" y="51.79" width="28.22" height="3.39"/>
	<rect x="139.85" y="51.79" width="28.22" height="3.39"/>
</g>
</svg>
